<svg width="40" height="40" viewBox="0 0 40 40" fill="none" xmlns="http://www.w3.org/2000/svg">
<path fill-rule="evenodd" clip-rule="evenodd" d="M0 2.05128C0 0.91839 0.91839 0 2.05128 0H34.8718C36.0047 0 36.9231 0.91839 36.9231 2.05128V34.0221L39.3992 36.4982C40.2003 37.2993 40.2003 38.5981 39.3992 39.3992C38.5981 40.2003 37.2993 40.2003 36.4982 39.3992L34.0221 36.9231H2.05128C0.91839 36.9231 0 36.0047 0 34.8718V2.05128ZM32.8205 29.9196L27.8607 24.9598C27.0597 24.1587 25.7609 24.1587 24.9598 24.9598C24.1587 25.7609 24.1587 27.0597 24.9598 27.8607L29.9196 32.8205H4.10256V4.10256H32.8205V29.9196Z" fill="#9785CB"/>
<path d="M8 11V8H11V11H8Z" fill="#F5F5F5"/>
<path fill-rule="evenodd" clip-rule="evenodd" d="M7 7.5C7 7.22386 7.22386 7 7.5 7H10.5C10.7761 7 11 7.22386 11 7.5V10.5C11 10.7761 10.7761 11 10.5 11H7.5C7.22386 11 7 10.7761 7 10.5V7.5ZM8 8V10H10V8H8Z" fill="#F5F5F5"/>
<path fill-rule="evenodd" clip-rule="evenodd" d="M5 5.53333C5 5.23878 5.23878 5 5.53333 5H12.4667C12.7612 5 13 5.23878 13 5.53333V12.4667C13 12.7612 12.7612 13 12.4667 13H5.53333C5.23878 13 5 12.7612 5 12.4667V5.53333ZM6.06667 6.06667V11.9333H11.9333V6.06667H6.06667Z" fill="#F5F5F5"/>
<path d="M26 11V8H29V11H26Z" fill="#F5F5F5"/>
<path fill-rule="evenodd" clip-rule="evenodd" d="M26 7.5C26 7.22386 26.2239 7 26.5 7H29.5C29.7761 7 30 7.22386 30 7.5V10.5C30 10.7761 29.7761 11 29.5 11H26.5C26.2239 11 26 10.7761 26 10.5V7.5ZM27 8V10H29V8H27Z" fill="#F5F5F5"/>
<path fill-rule="evenodd" clip-rule="evenodd" d="M24 5.53333C24 5.23878 24.2388 5 24.5333 5H31.4667C31.7612 5 32 5.23878 32 5.53333V12.4667C32 12.7612 31.7612 13 31.4667 13H24.5333C24.2388 13 24 12.7612 24 12.4667V5.53333ZM25.0667 6.06667V11.9333H30.9333V6.06667H25.0667Z" fill="#F5F5F5"/>
<path d="M8 29V26H11V29H8Z" fill="#F5F5F5"/>
<path fill-rule="evenodd" clip-rule="evenodd" d="M7 26.5C7 26.2239 7.22386 26 7.5 26H10.5C10.7761 26 11 26.2239 11 26.5V29.5C11 29.7761 10.7761 30 10.5 30H7.5C7.22386 30 7 29.7761 7 29.5V26.5ZM8 27V29H10V27H8Z" fill="#F5F5F5"/>
<path fill-rule="evenodd" clip-rule="evenodd" d="M5 24.5333C5 24.2388 5.23878 24 5.53333 24H12.4667C12.7612 24 13 24.2388 13 24.5333V31.4667C13 31.7612 12.7612 32 12.4667 32H5.53333C5.23878 32 5 31.7612 5 31.4667V24.5333ZM6.06667 25.0667V30.9333H11.9333V25.0667H6.06667Z" fill="#F5F5F5"/>
<path d="M10.8315 15V16.3556L8.72093 16.4889V21.1778C8.72093 21.363 8.64773 21.5222 8.50133 21.6556C8.36307 21.7889 8.18821 21.8556 7.97674 21.8556H6.93976V16.6222L5 16.7444V15.5L10.8315 15Z" fill="#F5F5F5"/>
<path d="M14.7059 20.6333C15.2345 20.6333 15.6656 20.4444 15.999 20.0667C16.3406 19.6889 16.5114 19.1407 16.5114 18.4222C16.5114 17.7556 16.365 17.2519 16.0722 16.9111C15.7795 16.563 15.4013 16.3889 14.9377 16.3889C14.4009 16.3889 13.9576 16.5778 13.6079 16.9556C13.2582 17.3333 13.0833 17.8815 13.0833 18.6C13.0833 19.2667 13.2338 19.7741 13.5347 20.1222C13.8356 20.463 14.226 20.6333 14.7059 20.6333ZM11.4363 18.6889C11.4363 17.963 11.5787 17.337 11.8633 16.8111C12.1561 16.2852 12.5506 15.8741 13.0467 15.5778C13.551 15.2741 14.1203 15.0889 14.7547 15.0222C14.9661 15.0074 15.1247 15 15.2305 15C15.8404 15 16.3854 15.1222 16.8652 15.3667C17.3532 15.6111 17.7355 15.9815 18.012 16.4778C18.2967 16.9741 18.439 17.5889 18.439 18.3222C18.439 19.1148 18.2723 19.7889 17.9388 20.3444C17.6135 20.9 17.1702 21.3148 16.609 21.5889C16.056 21.863 15.4379 22 14.7547 22C14.1203 22 13.551 21.8741 13.0467 21.6222C12.5506 21.3778 12.1561 21.0074 11.8633 20.5111C11.5787 20.0148 11.4363 19.4074 11.4363 18.6889Z" fill="#F5F5F5"/>
<path d="M22.438 20.6333C22.9666 20.6333 23.3977 20.4444 23.7311 20.0667C24.0727 19.6889 24.2435 19.1407 24.2435 18.4222C24.2435 17.7556 24.0971 17.2519 23.8043 16.9111C23.5115 16.563 23.1333 16.3889 22.6697 16.3889C22.133 16.3889 21.6897 16.5778 21.34 16.9556C20.9902 17.3333 20.8154 17.8815 20.8154 18.6C20.8154 19.2667 20.9658 19.7741 21.2668 20.1222C21.5677 20.463 21.9581 20.6333 22.438 20.6333ZM19.1684 18.6889C19.1684 17.963 19.3107 17.337 19.5954 16.8111C19.8882 16.2852 20.2827 15.8741 20.7788 15.5778C21.283 15.2741 21.8524 15.0889 22.4868 15.0222C22.6982 15.0074 22.8568 15 22.9625 15C23.5725 15 24.1175 15.1222 24.5973 15.3667C25.0853 15.6111 25.4676 15.9815 25.7441 16.4778C26.0288 16.9741 26.1711 17.5889 26.1711 18.3222C26.1711 19.1148 26.0044 19.7889 25.6709 20.3444C25.3456 20.9 24.9023 21.3148 24.3411 21.5889C23.7881 21.863 23.1699 22 22.4868 22C21.8524 22 21.283 21.8741 20.7788 21.6222C20.2827 21.3778 19.8882 21.0074 19.5954 20.5111C19.3107 20.0148 19.1684 19.4074 19.1684 18.6889Z" fill="#F5F5F5"/>
<path d="M32 20.4V21.2333C32 21.4037 31.9309 21.5519 31.7926 21.6778C31.6543 21.8037 31.4876 21.8667 31.2924 21.8667H27.1445V15.5L28.7427 15.1333V20.5444L32 20.4Z" fill="#F5F5F5"/>
<path fill-rule="evenodd" clip-rule="evenodd" d="M14 6.5C14 6.22386 14.2178 6 14.4865 6H16.9189C17.1876 6 17.4054 6.22386 17.4054 6.5V8.25C17.4054 8.52614 17.1876 8.75 16.9189 8.75H14.973V9.75H19.5946V6.5C19.5946 6.22386 19.8124 6 20.0811 6H22.5135C22.7822 6 23 6.22386 23 6.5V12.5C23 12.7761 22.7822 13 22.5135 13H14.4865C14.2178 13 14 12.7761 14 12.5C14 12.2239 14.2178 12 14.4865 12H22.027V7H20.5676V10.25C20.5676 10.5261 20.3498 10.75 20.0811 10.75H14.4865C14.2178 10.75 14 10.5261 14 10.25V8.25C14 7.97386 14.2178 7.75 14.4865 7.75H16.4324V7H14.4865C14.2178 7 14 6.77614 14 6.5Z" fill="#F5F5F5"/>
<path fill-rule="evenodd" clip-rule="evenodd" d="M18.6216 6C18.8903 6 19.1081 6.22386 19.1081 6.5V8.5C19.1081 8.77614 18.8903 9 18.6216 9C18.3529 9 18.1351 8.77614 18.1351 8.5V6.5C18.1351 6.22386 18.3529 6 18.6216 6ZM14.4865 24.25C14.7552 24.25 14.973 24.4739 14.973 24.75V30H17.1622V29H15.9459C15.6773 29 15.4595 28.7761 15.4595 28.5V24.75C15.4595 24.4739 15.6773 24.25 15.9459 24.25H22.5135C22.7822 24.25 23 24.4739 23 24.75V27.5C23 27.7761 22.7822 28 22.5135 28H20.8108C20.5421 28 20.3243 27.7761 20.3243 27.5V26.75H17.6486C17.38 26.75 17.1622 26.5261 17.1622 26.25C17.1622 25.9739 17.38 25.75 17.6486 25.75H20.8108C21.0795 25.75 21.2973 25.9739 21.2973 26.25V27H22.027V25.25H16.4324V28H17.6486C17.9173 28 18.1351 28.2239 18.1351 28.5V30.5C18.1351 30.7761 17.9173 31 17.6486 31H14.4865C14.2178 31 14 30.7761 14 30.5V24.75C14 24.4739 14.2178 24.25 14.4865 24.25Z" fill="#F5F5F5"/>
<path fill-rule="evenodd" clip-rule="evenodd" d="M19.4286 27C19.6653 27 19.8571 27.2388 19.8571 27.5333V29.9333H20.9286V29.1333C20.9286 28.8388 21.1204 28.6 21.3571 28.6H22.8571C22.9374 28.6 23.0161 28.6281 23.0843 28.6811L24.7985 30.0144C24.9607 30.1405 25.0361 30.385 24.9834 30.6137C24.9306 30.8424 24.7626 31 24.5714 31H22.8571C22.6204 31 22.4286 30.7612 22.4286 30.4667V29.6667H21.7857V30.4667C21.7857 30.7612 21.5938 31 21.3571 31H19.4286C19.1919 31 19 30.7612 19 30.4667V27.5333C19 27.2388 19.1919 27 19.4286 27Z" fill="#F5F5F5"/>
<path fill-rule="evenodd" clip-rule="evenodd" d="M29.0351 23.3799C29.1066 23.1499 29.2749 23 29.4615 23H31.5385C31.7934 23 32 23.2755 32 23.6154V26.3846C32 26.6335 31.8876 26.8579 31.7151 26.9531C31.5426 27.0484 31.3441 26.9957 31.2121 26.8197L29.1352 24.0505C29.0032 23.8745 28.9637 23.6098 29.0351 23.3799ZM30.5758 24.2308L31.0769 24.8989V24.2308H30.5758Z" fill="#F5F5F5"/>
</svg>
